<?xml version="1.0" encoding="utf-8"?>
<!-- Generator: Adobe Illustrator 24.0.0, SVG Export Plug-In . SVG Version: 6.00 Build 0)  -->
<svg version="1.1" id="Calque_1" xmlns="http://www.w3.org/2000/svg" xmlns:xlink="http://www.w3.org/1999/xlink" x="0px" y="0px"
	 viewBox="0 0 772 924" style="enable-background:new 0 0 772 924;" xml:space="preserve">
<style type="text/css">
	.st0{fill:none;stroke:#FFFFFF;stroke-width:3;stroke-miterlimit:10;}
</style>
<g>
	<path class="st0" d="M263.11,473.42L429.21,70.1c4.07-7.52,7.12-12.99,9.15-16.41c2.04-3.42,5.86-8.15,11.5-14.18
		c5.63-6.04,11.89-10.77,18.77-14.18c10.32-5.24,20.49-9.57,30.5-12.99c10.01-3.42,17.21-5.13,21.58-5.13
		c8.76,0,13.14,3.42,13.14,10.25c0,2.73-3.12,11.73-9.38,27L362.12,442.66c-5.31,12.76-17.2,25-35.66,36.74
		C308,491.14,290.64,497,274.38,497c-9.38,0-14.08-3.42-14.08-10.25C260.3,482.65,261.24,478.21,263.11,473.42z M581.7,94.37
		l156.24,354.44c2.81,4.79,4.22,9.91,4.22,15.38c0,5.69-2.73,10.82-8.21,15.38c-5.47,4.56-12.12,7.97-19.94,10.25
		c-7.82,2.28-15.17,4.04-22.05,5.3c-6.88,1.25-12.51,1.88-16.89,1.88c-13.76,0-22.99-5.59-27.68-16.75L522.11,181.18
		c-5.63-13.45-8.45-23.13-8.45-29.05c0-11.4,5.16-26.44,15.48-45.12c10.32-18.69,21.11-28.03,32.38-28.03
		C570.29,78.99,577.01,84.11,581.7,94.37z"/>
</g>
<g>
	<path class="st0" d="M170.3,813.63L14.05,459.19c-2.82-4.79-4.22-9.91-4.22-15.38c0-5.69,2.73-10.82,8.21-15.38
		c5.47-4.56,12.12-7.97,19.94-10.25c7.82-2.27,15.17-4.04,22.05-5.3c6.88-1.25,12.51-1.88,16.89-1.88
		c13.76,0,22.99,5.59,27.68,16.75l125.28,299.07c5.63,13.45,8.45,23.13,8.45,29.05c0,11.4-5.16,26.44-15.48,45.12
		c-10.32,18.69-21.11,28.03-32.38,28.03C181.71,829.01,174.99,823.89,170.3,813.63z M488.89,434.58L322.79,837.9
		c-4.07,7.52-7.12,12.99-9.15,16.41c-2.04,3.42-5.86,8.15-11.5,14.18c-5.63,6.04-11.89,10.77-18.77,14.18
		c-10.32,5.25-20.49,9.57-30.5,12.99c-10.01,3.42-17.21,5.13-21.58,5.13c-8.76,0-13.14-3.42-13.14-10.25c0-2.73,3.12-11.73,9.38-27
		l162.34-398.19c5.31-12.76,17.2-25,35.66-36.74C444,416.86,461.36,411,477.63,411c9.38,0,14.08,3.42,14.08,10.25
		C491.7,425.35,490.76,429.79,488.89,434.58z"/>
</g>
<g>
</g>
<g>
</g>
<g>
</g>
<g>
</g>
<g>
</g>
<g>
</g>
<g>
</g>
<g>
</g>
<g>
</g>
<g>
</g>
<g>
</g>
<g>
</g>
<g>
</g>
<g>
</g>
<g>
</g>
</svg>
